solid MYSOLID created by IVREAD, original data in cube.iv
  facet normal   0.000000E+00  0.000000E+00   1.00000    
    outer loop
      vertex  -0.500000     -0.500000       1.00000    
      vertex   0.500000     -0.500000       1.00000    
      vertex   0.500000      0.500000       1.00000    
      vertex  -0.500000      0.500000       1.00000    
    endloop
  endfacet
  facet normal   0.000000E+00  0.000000E+00  -1.00000    
    outer loop
      vertex   0.500000     -0.500000      0.000000E+00
      vertex  -0.500000     -0.500000      0.000000E+00
      vertex  -0.500000      0.500000      0.000000E+00
      vertex   0.500000      0.500000      0.000000E+00
    endloop
  endfacet
  facet normal   -1.00000      0.000000E+00  0.000000E+00
    outer loop
      vertex  -0.500000     -0.500000      0.000000E+00
      vertex  -0.500000     -0.500000       1.00000    
      vertex  -0.500000      0.500000       1.00000    
      vertex  -0.500000      0.500000      0.000000E+00
    endloop
  endfacet
  facet normal    1.00000      0.000000E+00  0.000000E+00
    outer loop
      vertex   0.500000     -0.500000       1.00000    
      vertex   0.500000     -0.500000      0.000000E+00
      vertex   0.500000      0.500000      0.000000E+00
      vertex   0.500000      0.500000       1.00000    
    endloop
  endfacet
  facet normal   0.000000E+00  -1.00000      0.000000E+00
    outer loop
      vertex  -0.500000     -0.500000      0.000000E+00
      vertex   0.500000     -0.500000      0.000000E+00
      vertex   0.500000     -0.500000       1.00000    
      vertex  -0.500000     -0.500000       1.00000    
    endloop
  endfacet
  facet normal   0.000000E+00   1.00000      0.000000E+00
    outer loop
      vertex  -0.500000      0.500000       1.00000    
      vertex   0.500000      0.500000       1.00000    
      vertex   0.500000      0.500000      0.000000E+00
      vertex  -0.500000      0.500000      0.000000E+00
    endloop
  endfacet
endsolid MYSOLID
